<?xml version="1.0" encoding="iso-8859-1"?>
<!-- Generator: Adobe Illustrator 17.1.0, SVG Export Plug-In . SVG Version: 6.00 Build 0)  -->
<!DOCTYPE svg PUBLIC "-//W3C//DTD SVG 1.1//EN" "http://www.w3.org/Graphics/SVG/1.1/DTD/svg11.dtd">
<svg version="1.1" id="Capa_1" xmlns="http://www.w3.org/2000/svg" xmlns:xlink="http://www.w3.org/1999/xlink" x="0px" y="0px"
	 viewBox="0 0 465 465" style="enable-background:new 0 0 465 465;" xml:space="preserve">
<g>
	<path d="M169.145,125.052l-32.882-4.249c-4.107-0.532-7.869,2.369-8.399,6.477c-0.531,4.108,2.369,7.868,6.477,8.399l26.343,3.404
		v13.407c0,4.142,3.358,7.5,7.5,7.5s7.5-3.358,7.5-7.5v-20C175.684,128.72,172.885,125.535,169.145,125.052z"/>
	<path d="M328.737,120.804l-32.882,4.249c-3.74,0.483-6.539,3.667-6.539,7.438v20c0,4.142,3.358,7.5,7.5,7.5s7.5-3.358,7.5-7.5
		v-13.407l26.343-3.404c4.108-0.531,7.008-4.291,6.477-8.399C336.606,123.173,332.851,120.271,328.737,120.804z"/>
	<path d="M449.635,254.333c-3.465-45.214-18.814-94.928-44.412-143.882V46.324C405.223,20.781,384.442,0,358.899,0
		c-18.166,0-34.257,10.467-41.811,26.342C290.976,13.366,262.565,6.795,232.5,6.795s-58.476,6.57-84.588,19.547
		C140.358,10.467,124.267,0,106.101,0C80.558,0,59.777,20.781,59.777,46.324v64.127c-25.597,48.954-40.946,98.667-44.412,143.882
		c-3.538,46.157,5.241,88.216,25.388,121.629c16.983,28.166,41.586,50.119,73.127,65.247C146.793,456.996,186.703,465,232.5,465
		s85.707-8.004,118.619-23.791c31.541-15.128,56.145-37.081,73.127-65.247C444.394,342.549,453.172,300.49,449.635,254.333z
		 M411.401,368.217C379.141,421.72,317.278,450,232.5,450S85.859,421.72,53.599,368.217C15.336,304.759,22.74,212.757,73.91,115.802
		c0.569-1.079,0.867-2.28,0.867-3.5V46.324C74.777,29.052,88.829,15,106.101,15c12.627,0,23.77,7.475,28.684,18.713
		c-12.734,7.935-22.483,14.945-29.685,21.344c-3.096,2.751-3.376,7.492-0.625,10.588c1.482,1.668,3.541,2.519,5.61,2.519
		c1.771,0,3.55-0.624,4.979-1.893c7.322-6.505,18.244-14.169,32.461-22.78c25.931-14.395,54.519-21.695,84.976-21.695
		s59.045,7.3,84.976,21.695c14.217,8.611,25.139,16.275,32.461,22.78c1.429,1.269,3.207,1.893,4.979,1.893
		c2.069,0,4.128-0.851,5.61-2.519c2.751-3.097,2.471-7.837-0.625-10.588c-7.203-6.399-16.951-13.409-29.685-21.344
		C335.129,22.475,346.272,15,358.899,15c17.272,0,31.324,14.052,31.324,31.324v65.977c0,1.22,0.298,2.422,0.867,3.5
		C442.26,212.757,449.664,304.759,411.401,368.217z"/>
	<path d="M250.786,209.027c-4.816,0-8.903-3.174-10.284-7.539l12.383-7.56c3.535-2.158,4.651-6.774,2.493-10.31
		c-2.158-3.535-6.773-4.651-10.31-2.493l-12.569,7.673l-12.569-7.673c-3.539-2.16-8.152-1.042-10.31,2.493
		c-2.158,3.536-1.042,8.151,2.493,10.31l12.383,7.56c-1.382,4.365-5.469,7.539-10.284,7.539c-4.142,0-7.5,3.358-7.5,7.5
		s3.358,7.5,7.5,7.5c7.141,0,13.612-2.919,18.286-7.625c4.674,4.706,11.145,7.625,18.286,7.625c4.142,0,7.5-3.358,7.5-7.5
		S254.928,209.027,250.786,209.027z"/>
</g>
<g>
</g>
<g>
</g>
<g>
</g>
<g>
</g>
<g>
</g>
<g>
</g>
<g>
</g>
<g>
</g>
<g>
</g>
<g>
</g>
<g>
</g>
<g>
</g>
<g>
</g>
<g>
</g>
<g>
</g>
</svg>
